<![CDATA[<mxfile host="app.diagrams.net" modified="2025-05-14T06:34:00.000Z" agent="Mozilla/5.0 (Macintosh; Intel Mac OS X 10_15_7) AppleWebKit/537.36 (KHTML, like Gecko) Chrome/136.0.0.0 Safari/537.36" etag="LO9FH2jUzVJNKwxW5XD8" version="22.0.4" type="device">
  <diagram id="C5RBs43oDa-KdzZeNtuy" name="Data Access Levels">
    <mxGraphModel dx="1223" dy="898" grid="1" gridSize="10" guides="1" tooltips="1" connect="1" arrows="1" fold="1" page="1" pageScale="1" pageWidth="827" pageHeight="1169" math="0" shadow="0">
      <root>
        <mxCell id="WIyWlLk6GJQsqaUBKTNV-0" />
        <mxCell id="WIyWlLk6GJQsqaUBKTNV-1" parent="WIyWlLk6GJQsqaUBKTNV-0" />
        <mxCell id="1" value="" style="shape=trapezoid;perimeter=trapezoidPerimeter;whiteSpace=wrap;html=1;fixedSize=1;size=140;fillColor=#dae8fc;strokeColor=#6c8ebf;direction=north;rounded=1;" parent="WIyWlLk6GJQsqaUBKTNV-1" vertex="1">
          <mxGeometry x="180" y="330" width="470" height="100" as="geometry" />
        </mxCell>
        <mxCell id="2" value="" style="shape=trapezoid;perimeter=trapezoidPerimeter;whiteSpace=wrap;html=1;fixedSize=1;size=120;fillColor=#d5e8d4;strokeColor=#82b366;direction=north;rounded=1;" parent="WIyWlLk6GJQsqaUBKTNV-1" vertex="1">
          <mxGeometry x="205" y="230" width="420" height="100" as="geometry" />
        </mxCell>
        <mxCell id="3" value="" style="shape=trapezoid;perimeter=trapezoidPerimeter;whiteSpace=wrap;html=1;fixedSize=1;size=100;fillColor=#ffe6cc;strokeColor=#d79b00;direction=north;rounded=1;" parent="WIyWlLk6GJQsqaUBKTNV-1" vertex="1">
          <mxGeometry x="230" y="130" width="370" height="100" as="geometry" />
        </mxCell>
        <mxCell id="4" value="" style="shape=trapezoid;perimeter=trapezoidPerimeter;whiteSpace=wrap;html=1;fixedSize=1;size=80;fillColor=#fff2cc;strokeColor=#d6b656;direction=north;rounded=1;" parent="WIyWlLk6GJQsqaUBKTNV-1" vertex="1">
          <mxGeometry x="255" y="30" width="320" height="100" as="geometry" />
        </mxCell>
        <mxCell id="5" value="&lt;b&gt;LEVEL 0: ORIGINAL STUDY DATA&lt;/b&gt;" style="text;html=1;strokeColor=none;fillColor=none;align=center;verticalAlign=middle;whiteSpace=wrap;rounded=0;fontSize=14;" parent="WIyWlLk6GJQsqaUBKTNV-1" vertex="1">
          <mxGeometry x="265" y="350" width="300" height="30" as="geometry" />
        </mxCell>
        <mxCell id="6" value="&lt;b&gt;LEVEL 1: CONSORTIUM SHARED DATA&lt;/b&gt;" style="text;html=1;strokeColor=none;fillColor=none;align=center;verticalAlign=middle;whiteSpace=wrap;rounded=0;fontSize=14;" parent="WIyWlLk6GJQsqaUBKTNV-1" vertex="1">
          <mxGeometry x="265" y="250" width="300" height="30" as="geometry" />
        </mxCell>
        <mxCell id="7" value="&lt;b&gt;LEVEL 2: RP1/RP2 DE-IDENTIFIED DATA&lt;/b&gt;" style="text;html=1;strokeColor=none;fillColor=none;align=center;verticalAlign=middle;whiteSpace=wrap;rounded=0;fontSize=14;" parent="WIyWlLk6GJQsqaUBKTNV-1" vertex="1">
          <mxGeometry x="265" y="150" width="300" height="30" as="geometry" />
        </mxCell>
        <mxCell id="8" value="&lt;b&gt;LEVEL 3: INFERENTIAL DATA&lt;/b&gt;" style="text;html=1;strokeColor=none;fillColor=none;align=center;verticalAlign=middle;whiteSpace=wrap;rounded=0;fontSize=14;" parent="WIyWlLk6GJQsqaUBKTNV-1" vertex="1">
          <mxGeometry x="265" y="50" width="300" height="30" as="geometry" />
        </mxCell>
        <mxCell id="9" value="• Raw, unprocessed data&lt;br&gt;• Highest sensitivity&lt;br&gt;• 5-year retention period&lt;br&gt;• Core Data Team access only" style="text;html=1;strokeColor=none;fillColor=none;align=left;verticalAlign=middle;whiteSpace=wrap;rounded=0;" parent="WIyWlLk6GJQsqaUBKTNV-1" vertex="1">
          <mxGeometry x="320" y="380" width="190" height="40" as="geometry" />
        </mxCell>
        <mxCell id="10" value="• Processed study data&lt;br&gt;• Medium-high sensitivity&lt;br&gt;• 10-year retention period&lt;br&gt;• HE²AT Consortium access only" style="text;html=1;strokeColor=none;fillColor=none;align=left;verticalAlign=middle;whiteSpace=wrap;rounded=0;" parent="WIyWlLk6GJQsqaUBKTNV-1" vertex="1">
          <mxGeometry x="320" y="280" width="190" height="40" as="geometry" />
        </mxCell>
        <mxCell id="11" value="• De-identified research data&lt;br&gt;• Medium sensitivity&lt;br&gt;• Indefinite retention period&lt;br&gt;• DAC-approved external researchers" style="text;html=1;strokeColor=none;fillColor=none;align=left;verticalAlign=middle;whiteSpace=wrap;rounded=0;" parent="WIyWlLk6GJQsqaUBKTNV-1" vertex="1">
          <mxGeometry x="320" y="180" width="200" height="40" as="geometry" />
        </mxCell>
        <mxCell id="12" value="• Aggregated and anonymized data&lt;br&gt;• Low sensitivity&lt;br&gt;• Indefinite retention period&lt;br&gt;• Open access" style="text;html=1;strokeColor=none;fillColor=none;align=left;verticalAlign=middle;whiteSpace=wrap;rounded=0;" parent="WIyWlLk6GJQsqaUBKTNV-1" vertex="1">
          <mxGeometry x="320" y="80" width="200" height="40" as="geometry" />
        </mxCell>
        <mxCell id="13" value="DATA ACCESS LEVELS HIERARCHY" style="text;html=1;strokeColor=none;fillColor=none;align=center;verticalAlign=middle;whiteSpace=wrap;rounded=0;fontSize=18;fontStyle=1" parent="WIyWlLk6GJQsqaUBKTNV-1" vertex="1">
          <mxGeometry x="225" y="440" width="380" height="30" as="geometry" />
        </mxCell>
        <mxCell id="14" value="" style="shape=flexArrow;endArrow=classic;html=1;rounded=0;endWidth=28;endSize=9.33;width=14;fillColor=#f5f5f5;strokeColor=#666666;" parent="WIyWlLk6GJQsqaUBKTNV-1" edge="1">
          <mxGeometry width="50" height="50" relative="1" as="geometry">
            <mxPoint x="140" y="380" as="sourcePoint" />
            <mxPoint x="140" y="80" as="targetPoint" />
          </mxGeometry>
        </mxCell>
        <mxCell id="15" value="Decreasing Sensitivity" style="text;html=1;strokeColor=none;fillColor=none;align=center;verticalAlign=middle;whiteSpace=wrap;rounded=0;rotation=-90;fontStyle=1" parent="WIyWlLk6GJQsqaUBKTNV-1" vertex="1">
          <mxGeometry x="65" y="230" width="150" height="30" as="geometry" />
        </mxCell>
        <mxCell id="16" value="" style="shape=flexArrow;endArrow=classic;html=1;rounded=0;endWidth=28;endSize=9.33;width=14;fillColor=#f5f5f5;strokeColor=#666666;" parent="WIyWlLk6GJQsqaUBKTNV-1" edge="1">
          <mxGeometry width="50" height="50" relative="1" as="geometry">
            <mxPoint x="690" y="380" as="sourcePoint" />
            <mxPoint x="690" y="80" as="targetPoint" />
          </mxGeometry>
        </mxCell>
        <mxCell id="17" value="Increasing Access" style="text;html=1;strokeColor=none;fillColor=none;align=center;verticalAlign=middle;whiteSpace=wrap;rounded=0;rotation=-90;fontStyle=1" parent="WIyWlLk6GJQsqaUBKTNV-1" vertex="1">
          <mxGeometry x="630" y="230" width="120" height="30" as="geometry" />
        </mxCell>
        <mxCell id="18" value="HE²AT CENTER DATA ACCESS FRAMEWORK" style="text;html=1;strokeColor=none;fillColor=none;align=center;verticalAlign=middle;whiteSpace=wrap;rounded=0;fontSize=20;fontStyle=1" parent="WIyWlLk6GJQsqaUBKTNV-1" vertex="1">
          <mxGeometry x="125" y="480" width="580" height="30" as="geometry" />
        </mxCell>
      </root>
    </mxGraphModel>
  </diagram>
</mxfile>]]>
